<svg xmlns="http://www.w3.org/2000/svg" viewBox="0 0 154.86 35.14"><defs><style>.cls-1{fill:#ffbc00;}.cls-2{fill:#fff;}.cls-3{fill:red;}.cls-4{fill:blue;}</style></defs><g id="레이어_2" data-name="레이어 2"><g id="레이어_1-2" data-name="레이어 1"><rect class="cls-1" x="90.31" y="22.87" width="5.85" height="5.85" rx="1.18" transform="translate(9.07 73.49) rotate(-45)"/><path class="cls-2" d="M21.27,9.76a2.61,2.61,0,0,1,.25-1.19,2.55,2.55,0,0,1,.68-.84,3,3,0,0,1,1-.51,3.77,3.77,0,0,1,1.11-.16,3.45,3.45,0,0,1,2.13.67,2.35,2.35,0,0,1,.9,2v7.78a9,9,0,0,1,2-.67,10.55,10.55,0,0,1,2.32-.23,13,13,0,0,1,3.71.5,9.36,9.36,0,0,1,3,1.48A7.1,7.1,0,0,1,40.4,21a6.66,6.66,0,0,1,.78,3.26V31.4a4.09,4.09,0,0,1-.69,2.44,2.78,2.78,0,0,1-2.45,1A2.93,2.93,0,0,1,35.87,34a2.69,2.69,0,0,1-.81-2V24.09A2.7,2.7,0,0,0,34,21.82a4.32,4.32,0,0,0-2.7-.83,4.36,4.36,0,0,0-2.67.78A3.12,3.12,0,0,0,27.39,24c0,.12,0,.24-.06.36s0,.24,0,.36v7A3.34,3.34,0,0,1,26.63,34a3.14,3.14,0,0,1-2.45.78,3,3,0,0,1-2.12-.74,2.45,2.45,0,0,1-.79-1.89Z"/><path class="cls-2" d="M63.24,31.14a4,4,0,0,0,2.25-.43,1.19,1.19,0,0,0,.56-.93,1.17,1.17,0,0,0-.43-.92,4.27,4.27,0,0,0-1-.65,5.58,5.58,0,0,0-1.19-.41l-1-.22L60,26.91A8.79,8.79,0,0,1,57.72,26,5.37,5.37,0,0,1,56.1,24.5a3.84,3.84,0,0,1-.63-2.28,4.82,4.82,0,0,1,.45-2,4.71,4.71,0,0,1,1.44-1.8A8,8,0,0,1,60,17.14a13.35,13.35,0,0,1,4-.5,19,19,0,0,1,3.27.27,9.26,9.26,0,0,1,2.56.77A2,2,0,0,1,71,19a2.64,2.64,0,0,1-.2,1.62c-.45,1-1.54,1.29-3.27.76-.48-.15-1-.3-1.55-.45a7.31,7.31,0,0,0-2-.24,5.39,5.39,0,0,0-1.27.13,2.38,2.38,0,0,0-.76.31,1,1,0,0,0-.38.43,1.29,1.29,0,0,0-.11.5c0,.48.34.84,1,1.06s1.55.48,2.63.74c.79.19,1.6.42,2.41.69a9.07,9.07,0,0,1,2.22,1,5.22,5.22,0,0,1,1.6,1.64,4.52,4.52,0,0,1,.61,2.43,4.47,4.47,0,0,1-2.21,3.92A11.85,11.85,0,0,1,63.28,35,16.46,16.46,0,0,1,59,34.56a8.42,8.42,0,0,1-2.81-1.26,2.09,2.09,0,0,1-1-1.38,2.16,2.16,0,0,1,.36-1.5A2,2,0,0,1,57,29.49a3.1,3.1,0,0,1,1.75.29c.62.33,1.28.64,2,.93A6.6,6.6,0,0,0,63.24,31.14Z"/><path class="cls-2" d="M78.9,10.62a2.33,2.33,0,0,1,.94-2A3.64,3.64,0,0,1,82,7.92a3.76,3.76,0,0,1,2.15.65,2.32,2.32,0,0,1,1,2v6h3.28a3.45,3.45,0,0,1,1.22.18,2.15,2.15,0,0,1,.76.48,1.69,1.69,0,0,1,.39.72,3.6,3.6,0,0,1,.11.88,3,3,0,0,1-.09.72,1.57,1.57,0,0,1-.36.67,2,2,0,0,1-.76.5,3.25,3.25,0,0,1-1.27.2H85.06V32.08a2.35,2.35,0,0,1-1,2.09,3.76,3.76,0,0,1-2.15.65,3.64,3.64,0,0,1-2.12-.65,2.37,2.37,0,0,1-.94-2.09V21H75.3a2.39,2.39,0,0,1-2-.66,2.38,2.38,0,0,1-.52-1.5,3.26,3.26,0,0,1,.11-.83,1.78,1.78,0,0,1,.38-.7,1.87,1.87,0,0,1,.75-.48,3.65,3.65,0,0,1,1.24-.18h3.6Z"/><path class="cls-2" d="M125.45,35a15.11,15.11,0,0,1-4.43-.56A9.14,9.14,0,0,1,118,32.94a6.23,6.23,0,0,1-1.83-2.3,8.14,8.14,0,0,1-.72-2.88,31.57,31.57,0,0,1,0-3.64,8.06,8.06,0,0,1,.68-2.95,6.66,6.66,0,0,1,1.82-2.39A8.55,8.55,0,0,1,121,17.16,16.54,16.54,0,0,1,129.3,17a8.34,8.34,0,0,1,2.56,1.08,1.9,1.9,0,0,1,.95,1.46,2.48,2.48,0,0,1-.45,1.6,1.76,1.76,0,0,1-1.49.81,3.47,3.47,0,0,1-1.78-.34c-.36-.14-.79-.29-1.28-.45a6.73,6.73,0,0,0-2-.23,5.25,5.25,0,0,0-3.29.82,3.12,3.12,0,0,0-1.1,2.42,26.59,26.59,0,0,0,0,3.34,3.17,3.17,0,0,0,1.13,2.38,5.29,5.29,0,0,0,3.3.83,5.94,5.94,0,0,0,2.12-.33,13.1,13.1,0,0,0,1.37-.57,3.16,3.16,0,0,1,2-.33,2.08,2.08,0,0,1,1.4,1,2.36,2.36,0,0,1,.4,1.45,1.91,1.91,0,0,1-.72,1.39,7.6,7.6,0,0,1-2.63,1.17A15.78,15.78,0,0,1,125.45,35Z"/><path class="cls-2" d="M136.47,9.76a2.73,2.73,0,0,1,.25-1.21,2.26,2.26,0,0,1,.68-.84,3.06,3.06,0,0,1,1-.49,3.84,3.84,0,0,1,1.12-.16,3.53,3.53,0,0,1,2.12.65,2.35,2.35,0,0,1,.9,2.05V22.65l7.1-5.65a2.62,2.62,0,0,1,1.85-.62,3,3,0,0,1,1.75.72A2,2,0,0,1,154,19,2.77,2.77,0,0,1,153,20.78l-5.54,4.5,6.59,5.5a2.42,2.42,0,0,1,.7,1,2.16,2.16,0,0,1,.14,1,2.49,2.49,0,0,1-.27.94,2.62,2.62,0,0,1-.5.72,2.68,2.68,0,0,1-1.85.72,2.79,2.79,0,0,1-1.89-.72l-7.82-6.59v4.25a2.4,2.4,0,0,1-.9,2.09,3.53,3.53,0,0,1-2.12.65,3.85,3.85,0,0,1-1.12-.17,3,3,0,0,1-1-.48,2.29,2.29,0,0,1-.68-.85,2.8,2.8,0,0,1-.25-1.24Z"/><path class="cls-2" d="M44.24,12.67a2.75,2.75,0,0,1,1-2.3,4,4,0,0,1,2.54-.79,4.11,4.11,0,0,1,2.56.79,2.73,2.73,0,0,1,1,2.3,2.68,2.68,0,0,1-1,2.29,4.17,4.17,0,0,1-2.56.78A4.09,4.09,0,0,1,45.26,15,2.69,2.69,0,0,1,44.24,12.67Zm.61,7a2.61,2.61,0,0,1,.25-1.19,2.41,2.41,0,0,1,.68-.83,3.09,3.09,0,0,1,1-.48A3.77,3.77,0,0,1,47.87,17a4,4,0,0,1,1.14.16,3,3,0,0,1,1,.48,2.41,2.41,0,0,1,.68.83,2.61,2.61,0,0,1,.25,1.19v12.6a2.8,2.8,0,0,1-.25,1.24,2.39,2.39,0,0,1-.68.85,3.25,3.25,0,0,1-1,.48,4,4,0,0,1-1.14.17,3.78,3.78,0,0,1-1.11-.17,3.31,3.31,0,0,1-1-.48,2.39,2.39,0,0,1-.68-.85,2.8,2.8,0,0,1-.25-1.24Z"/><path class="cls-2" d="M10.1,35a15.07,15.07,0,0,1-4.43-.56,9.14,9.14,0,0,1-3.06-1.53,6.16,6.16,0,0,1-1.84-2.3,8.59,8.59,0,0,1-.72-2.88,31.57,31.57,0,0,1,0-3.64,8.07,8.07,0,0,1,.69-2.95,6.66,6.66,0,0,1,1.82-2.39,8.55,8.55,0,0,1,3.06-1.62,14.45,14.45,0,0,1,4.44-.6A14.7,14.7,0,0,1,14,17a8.34,8.34,0,0,1,2.56,1.08,1.93,1.93,0,0,1,.95,1.46,2.48,2.48,0,0,1-.45,1.6,1.78,1.78,0,0,1-1.49.81,3.53,3.53,0,0,1-1.79-.34c-.36-.14-.78-.29-1.27-.45a6.77,6.77,0,0,0-2-.23,5.3,5.3,0,0,0-3.3.82A3.12,3.12,0,0,0,6.07,24.2a23.27,23.27,0,0,0,0,3.34A3.17,3.17,0,0,0,7.2,29.92a5.24,5.24,0,0,0,3.29.83,6,6,0,0,0,2.13-.33A14.09,14.09,0,0,0,14,29.85a3.16,3.16,0,0,1,2-.33,2.1,2.1,0,0,1,1.4,1,2.36,2.36,0,0,1,.4,1.45,1.91,1.91,0,0,1-.72,1.39,7.69,7.69,0,0,1-2.63,1.17A15.88,15.88,0,0,1,10.1,35Z"/><rect class="cls-3" x="99.4" width="5.17" height="13.27" rx="2.59"/><rect class="cls-4" x="106" y="4.6" width="5.17" height="10.33" rx="2.59"/><rect class="cls-3" x="92.79" y="8.17" width="5.17" height="7.95" rx="2.59"/><path class="cls-2" d="M112.17,24.09a6.6,6.6,0,0,0-1-3.06,8.63,8.63,0,0,0-2.25-2.34,10.83,10.83,0,0,0-3.11-1.51,12.33,12.33,0,0,0-3.66-.54,13.29,13.29,0,0,0-3.81.52,10,10,0,0,0-3.1,1.49A7.76,7.76,0,0,0,93.07,21a7.13,7.13,0,0,0-.95,3.08,25.4,25.4,0,0,0,0,3.49,6.85,6.85,0,0,0,1,3A8,8,0,0,0,95.27,33a10.38,10.38,0,0,0,3.09,1.53,12.7,12.7,0,0,0,3.76.54,13,13,0,0,0,3.8-.54A10.46,10.46,0,0,0,109.05,33a8,8,0,0,0,2.18-2.34,6.62,6.62,0,0,0,.94-3.06c0-.58.07-1.15.07-1.73S112.22,24.69,112.17,24.09ZM99.11,26.52a2.34,2.34,0,1,1,2.34-2.34A2.33,2.33,0,0,1,99.11,26.52Z"/></g></g></svg>