<svg xmlns="http://www.w3.org/2000/svg" viewBox="0 0 263.25 274"><g id="레이어_2" data-name="레이어 2"><g id="레이어_1-2" data-name="레이어 1"><path d="M152,0c2,.82,4,1.55,5.89,2.46,7,3.27,11,8.81,11,16.46q.19,70.93,0,141.88c0,9.78-6.61,16.9-16.4,18.35-3.92.58-7.91.71-12.55,1.1v24.82c0,6.49.05,13,0,19.47s-2.6,9.59-7.62,9.46-7.33-3.37-7.36-9.82q-.12-19.23-.18-38.47v-5.53c-4-.31-7.47-.45-10.9-.88C103.49,178,97.5,172,96.24,161.51A56.15,56.15,0,0,1,96,155c0-42.63.29-85.27-.18-127.9C95.7,13.71,99.43,4.07,113,0Zm1.83,90.55q0-34,0-67.93c0-5.57-1.24-6.71-6.78-6.77-9.49-.12-19-.23-28.47-.26-5.26,0-7.36,1.92-7.37,7.21q-.08,67.19,0,134.37c0,5.46,2.3,7.34,7.83,7.27q13.49-.18,27-.27c6.94-.06,7.83-.89,7.83-7.72Q153.89,123.51,153.87,90.55Z"/><path d="M225.06,274c-4.35-2.47-5.69-6.21-5.6-11.15.26-13,.09-25.93.09-39.69-3.55,0-6.64.07-9.73,0-11.17-.3-18.87-7.82-18.9-19q-.15-56.7,0-113.42c0-11.42,7.49-19,19-19.69,2.95-.17,5.91,0,9.68,0,0-11.81-.23-23.09.16-34.35.1-3,1.25-7,3.37-8.6,5.3-4.06,11.17,0,11.42,7.59.32,9.81.28,19.64.39,29.46,0,1.79,0,3.57,0,5.87,2.94,0,5.39,0,7.84,0,12.67.21,20.47,8,20.48,20.73q.06,55.47,0,110.93c0,13-7.41,20.4-20.43,20.49-2.47,0-4.94,0-8.22,0v8.71c0,10.33-.2,20.66.08,31,.13,4.94-1.25,8.66-5.59,11.14Zm23-127q0-26.72,0-53.43c0-5.42-1.51-7.25-6.5-7.33-9.65-.15-19.31-.06-29,0-4.4,0-6.6,1.93-6.58,6.7.1,36.12,0,72.25.07,108.37,0,5.26,1.52,6.7,6.92,6.73q13.74.06,27.48,0c6.33,0,7.58-1.25,7.59-7.58Q248.08,173.7,248.06,147Z"/><path d="M0,83a37.07,37.07,0,0,0,2.08-3.24Q7.44,69.17,19.28,69c3,0,6,0,9.2,0A28,28,0,0,0,29,65.3q0-24.21-.12-48.44c0-1.33,0-2.67.11-4,.37-5.22,2.62-7.82,6.6-7.69,5.1.17,8.42,3.4,8.43,8.34q0,25,0,50c0,1.62.14,3.24.23,5.37,3.25,0,6.2-.08,9.15,0C65.32,69.21,73,76.92,73,88.9q.12,51.69,0,103.39c0,12.51-7.62,20.18-20.14,20.68-2.65.11-5.32,0-8.84,0,0,9.9.08,19.65-.06,29.39,0,2.26-.26,4.92-1.47,6.64s-3.88,3.75-5.81,3.65c-2.17-.11-4.72-2-6.19-3.91-1.19-1.51-1.38-4.07-1.41-6.17C28.93,233,29,223.31,29,213.35a20.51,20.51,0,0,0-3.51-.25C13.63,214.46,5.33,209.43,0,199Zm57.85,57.83c0-16.66,0-33.32,0-50,0-5.44-1.4-6.8-6.82-6.84-9.33-.07-18.66,0-28,0-6.26,0-7.79,1.35-7.8,7.56q-.11,49.49,0,99c0,5.46,1.84,7.21,7.26,7.27q13.76.15,27.5,0c6.53-.06,7.86-1.46,7.87-8Q57.87,165.32,57.85,140.83Z"/></g></g></svg>