<?xml version="1.0" encoding="utf-8"?>
<!-- Generator: Adobe Illustrator 25.1.0, SVG Export Plug-In . SVG Version: 6.00 Build 0)  -->
<svg version="1.1" id="레이어_1" xmlns="http://www.w3.org/2000/svg" xmlns:xlink="http://www.w3.org/1999/xlink" x="0px"
	 y="0px" viewBox="0 0 154.9 35.1" style="enable-background:new 0 0 154.9 35.1;" xml:space="preserve">
<style type="text/css">
	.st0{fill:#FFDA00;}
	.st1{fill:#FFFFFF;}
	.st2{fill:#FF4848;}
	.st3{fill:#00349B;}
</style>
<path class="st0" d="M89.9,25l2.5-2.5c0.5-0.5,1.2-0.5,1.7,0l2.5,2.5c0.5,0.5,0.5,1.2,0,1.7l-2.5,2.5c-0.5,0.5-1.2,0.5-1.7,0
	l-2.5-2.5C89.5,26.2,89.5,25.4,89.9,25z"/>
<path class="st1" d="M21.3,9.8c0-0.4,0.1-0.8,0.2-1.2c0.2-0.3,0.4-0.6,0.7-0.8c0.3-0.2,0.6-0.4,1-0.5s0.7-0.2,1.1-0.2
	c0.8,0,1.5,0.2,2.1,0.7s0.9,1.2,0.9,2v7.8c0.6-0.3,1.3-0.5,2-0.7c0.8-0.2,1.5-0.2,2.3-0.2c1.3,0,2.5,0.2,3.7,0.5
	c1.1,0.3,2.1,0.8,3,1.5c0.8,0.6,1.5,1.5,2,2.4c0.5,1,0.8,2.1,0.8,3.3v7.1c0,0.9-0.2,1.7-0.7,2.4c-0.6,0.7-1.5,1.1-2.5,1
	c-0.8,0-1.6-0.3-2.2-0.8c-0.5-0.5-0.8-1.2-0.8-2v-7.9c0-0.9-0.4-1.7-1.1-2.3c-0.8-0.6-1.7-0.9-2.7-0.8c-1,0-1.9,0.2-2.7,0.8
	c-0.7,0.5-1.2,1.3-1.2,2.2c0,0.1,0,0.2-0.1,0.4s0,0.2,0,0.4v7c0.1,0.8-0.2,1.6-0.7,2.3c-0.7,0.6-1.6,0.9-2.5,0.8
	c-0.8,0-1.5-0.2-2.1-0.7c-0.5-0.5-0.8-1.2-0.8-1.9L21.3,9.8z"/>
<path class="st1" d="M63.2,31.1c0.8,0.1,1.6-0.1,2.3-0.4c0.3-0.2,0.5-0.5,0.6-0.9c0-0.4-0.2-0.7-0.4-0.9c-0.3-0.3-0.6-0.5-1-0.6
	c-0.4-0.2-0.8-0.3-1.2-0.4l-1-0.2L60,26.9c-0.8-0.2-1.6-0.5-2.3-0.9c-0.6-0.4-1.2-0.9-1.6-1.5c-0.4-0.7-0.7-1.5-0.6-2.3
	c0-0.7,0.2-1.4,0.5-2c0.3-0.7,0.8-1.3,1.4-1.8c0.8-0.6,1.7-1,2.6-1.3c1.3-0.4,2.6-0.5,4-0.5c1.1,0,2.2,0.1,3.3,0.3
	c0.9,0.1,1.7,0.4,2.6,0.8c0.6,0.2,1,0.7,1.2,1.3c0.1,0.5,0,1.1-0.2,1.6c-0.4,1-1.5,1.3-3.3,0.8c-0.5-0.1-1-0.3-1.6-0.5
	c-0.7-0.2-1.3-0.3-2-0.2c-0.4,0-0.9,0-1.3,0.1c-0.3,0.1-0.5,0.2-0.8,0.3c-0.2,0.1-0.3,0.3-0.4,0.4c-0.1,0.2-0.1,0.3-0.1,0.5
	c0,0.5,0.3,0.8,1,1.1s1.5,0.5,2.6,0.7c0.8,0.2,1.6,0.4,2.4,0.7c0.8,0.2,1.5,0.6,2.2,1c0.6,0.4,1.2,1,1.6,1.6
	c0.4,0.7,0.6,1.6,0.6,2.4c0,1.6-0.8,3.1-2.2,3.9c-2,1.1-4.2,1.6-6.4,1.5c-1.4,0-2.9-0.1-4.3-0.4c-1-0.2-2-0.7-2.8-1.3
	c-0.5-0.3-0.9-0.8-1-1.4c-0.1-0.5,0.1-1.1,0.4-1.5c0.3-0.5,0.9-0.9,1.5-0.9c0.6-0.1,1.2,0,1.8,0.3s1.3,0.6,2,0.9
	C61.5,31,62.4,31.2,63.2,31.1z"/>
<path class="st1" d="M78.9,10.6c0-0.8,0.3-1.5,0.9-2s1.4-0.7,2.2-0.7c0.8,0,1.5,0.2,2.2,0.6c0.7,0.5,1,1.2,1,2v6h3.3
	c0.4,0,0.8,0,1.2,0.2c0.3,0.1,0.5,0.3,0.8,0.5c0.2,0.2,0.3,0.5,0.4,0.7c0.1,0.3,0.1,0.6,0.1,0.9c0,0.2,0,0.5-0.1,0.7
	s-0.2,0.5-0.4,0.7c-0.2,0.2-0.5,0.4-0.8,0.5c-0.4,0.2-0.8,0.2-1.3,0.2H85v11.2c0.1,0.8-0.3,1.6-1,2.1c-0.6,0.4-1.4,0.7-2.2,0.7
	c-0.8,0-1.5-0.2-2.1-0.7c-0.7-0.5-1-1.3-0.9-2.1V21h-3.5c-0.7,0.1-1.5-0.1-2-0.7c-0.3-0.4-0.5-1-0.5-1.5c0-0.3,0-0.6,0.1-0.8
	c0.1-0.3,0.2-0.5,0.4-0.7c0.2-0.2,0.5-0.4,0.8-0.5c0.4-0.1,0.8-0.2,1.2-0.2h3.6L78.9,10.6z"/>
<path class="st1" d="M125.4,35c-1.5,0-3-0.2-4.4-0.6c-1.1-0.3-2.1-0.8-3-1.5c-0.8-0.6-1.4-1.4-1.8-2.3s-0.7-1.9-0.7-2.9
	c-0.1-1.2-0.1-2.4,0-3.6c0-1,0.3-2,0.7-3c0.4-0.9,1-1.7,1.8-2.4c0.9-0.7,1.9-1.3,3.1-1.6c2.7-0.8,5.6-0.8,8.3-0.2
	c0.9,0.2,1.8,0.6,2.6,1.1c0.5,0.3,0.9,0.8,0.9,1.5c0,0.6-0.1,1.1-0.4,1.6c-0.3,0.5-0.9,0.8-1.5,0.8s-1.2-0.1-1.8-0.3
	c-0.4-0.1-0.8-0.3-1.3-0.5c-0.7-0.2-1.3-0.3-2-0.2c-1.2-0.1-2.3,0.2-3.3,0.8c-0.7,0.6-1.1,1.5-1.1,2.4c-0.1,1.1-0.1,2.2,0,3.3
	c0,0.9,0.4,1.8,1.1,2.4c1,0.6,2.1,0.9,3.3,0.8c0.7,0,1.4-0.1,2.1-0.3c0.5-0.2,0.9-0.4,1.4-0.6c0.6-0.3,1.3-0.4,2-0.3
	c0.6,0.1,1.1,0.5,1.4,1c0.3,0.4,0.4,0.9,0.4,1.5c0,0.5-0.3,1.1-0.7,1.4c-0.8,0.6-1.7,1-2.6,1.2C128.4,34.9,126.9,35,125.4,35z"/>
<path class="st1" d="M136.5,9.8c0-0.4,0.1-0.8,0.2-1.2c0.2-0.3,0.4-0.6,0.7-0.8s0.6-0.4,1-0.5s0.7-0.2,1.1-0.2
	c0.8,0,1.5,0.2,2.1,0.7s1,1.3,0.9,2v12.9l7.1-5.6c0.5-0.4,1.2-0.7,1.9-0.6c0.6,0,1.3,0.3,1.8,0.7c0.6,0.4,0.9,1.2,0.8,1.9
	c-0.1,0.7-0.5,1.3-1,1.8l-5.5,4.5l6.6,5.5c0.3,0.3,0.6,0.6,0.7,1c0.1,0.3,0.2,0.7,0.1,1c0,0.3-0.1,0.6-0.3,0.9
	c-0.1,0.3-0.3,0.5-0.5,0.7c-0.5,0.5-1.2,0.7-1.9,0.7s-1.4-0.3-1.9-0.7l-7.8-6.6v4.2c0.1,0.8-0.3,1.6-0.9,2.1
	c-0.6,0.4-1.4,0.7-2.1,0.7c-0.4,0-0.8-0.1-1.1-0.2c-0.4-0.1-0.7-0.3-1-0.5s-0.5-0.5-0.7-0.8c-0.2-0.4-0.3-0.8-0.2-1.2L136.5,9.8z"/>
<path class="st1" d="M44.2,12.7c-0.1-0.9,0.3-1.7,1-2.3c0.7-0.5,1.6-0.8,2.5-0.8s1.8,0.2,2.6,0.8c0.7,0.6,1.1,1.4,1,2.3
	c0.1,0.9-0.3,1.7-1,2.3c-0.7,0.5-1.6,0.8-2.6,0.8c-0.9,0-1.8-0.2-2.5-0.7C44.6,14.4,44.2,13.6,44.2,12.7z M44.9,19.7
	c0-0.4,0.1-0.8,0.2-1.2c0.2-0.3,0.4-0.6,0.7-0.8c0.3-0.2,0.6-0.4,1-0.5s0.7-0.2,1.1-0.2c0.4,0,0.8,0.1,1.1,0.2
	c0.4,0.1,0.7,0.3,1,0.5s0.5,0.5,0.7,0.8c0.2,0.4,0.3,0.8,0.2,1.2v12.6c0,0.4-0.1,0.9-0.2,1.2c-0.2,0.3-0.4,0.6-0.7,0.8
	s-0.6,0.4-1,0.5S48.2,35,47.9,35c-0.4,0-0.8-0.1-1.1-0.2c-0.4-0.1-0.7-0.3-1-0.5s-0.5-0.5-0.7-0.8c-0.2-0.4-0.3-0.8-0.2-1.2V19.7z"
	/>
<path class="st1" d="M10.1,35c-1.5,0-3-0.2-4.4-0.6c-1.1-0.3-2.1-0.8-3.1-1.5c-0.8-0.6-1.4-1.4-1.8-2.3s-0.6-1.9-0.7-2.9
	c-0.1-1.2-0.1-2.4,0-3.6c0-1,0.3-2,0.7-3c0.4-0.9,1-1.7,1.8-2.4c0.9-0.7,1.9-1.3,3.1-1.6c1.4-0.4,2.9-0.6,4.4-0.6
	c1.3,0,2.7,0.1,3.9,0.5c0.9,0.2,1.8,0.6,2.6,1.1c0.5,0.3,0.9,0.8,1,1.5c0,0.6-0.1,1.1-0.5,1.6c-0.3,0.5-0.9,0.8-1.5,0.8
	s-1.2-0.1-1.8-0.3c-0.4-0.1-0.8-0.3-1.3-0.5c-0.7-0.2-1.3-0.3-2-0.2c-1.2-0.1-2.3,0.2-3.3,0.8c-0.7,0.6-1.2,1.5-1.1,2.5
	c-0.1,1.1-0.1,2.2,0,3.3c0,0.9,0.4,1.8,1.1,2.4c1,0.6,2.1,0.9,3.3,0.8c0.7,0,1.4-0.1,2.1-0.3c0.5-0.2,0.9-0.4,1.4-0.6
	c0.6-0.3,1.3-0.4,2-0.3c0.6,0.1,1.1,0.5,1.4,1c0.3,0.4,0.4,0.9,0.4,1.5c0,0.5-0.3,1.1-0.7,1.4c-0.8,0.6-1.7,0.9-2.6,1.2
	C13,34.9,11.6,35,10.1,35z"/>
<path class="st2" d="M102,0L102,0c1.4,0,2.6,1.2,2.6,2.6v8.1c0,1.4-1.2,2.6-2.6,2.6l0,0c-1.4,0-2.6-1.2-2.6-2.6V2.6
	C99.4,1.2,100.6,0,102,0z"/>
<path class="st3" d="M108.6,4.6L108.6,4.6c1.4,0,2.6,1.2,2.6,2.6v5.2c0,1.4-1.2,2.6-2.6,2.6l0,0c-1.4,0-2.6-1.2-2.6-2.6V7.2
	C106,5.8,107.2,4.6,108.6,4.6z"/>
<path class="st2" d="M95.4,8.2L95.4,8.2c1.4,0,2.6,1.2,2.6,2.6v2.8c0,1.4-1.2,2.6-2.6,2.6l0,0c-1.4,0-2.6-1.2-2.6-2.6v-2.8
	C92.8,9.3,93.9,8.2,95.4,8.2z"/>
<path class="st1" d="M112.2,24.1c-0.1-1.1-0.4-2.1-1-3.1c-0.6-0.9-1.4-1.7-2.2-2.3c-0.9-0.7-2-1.2-3.1-1.5c-1.2-0.4-2.4-0.5-3.7-0.5
	c-1.3,0-2.6,0.2-3.8,0.5c-1.1,0.3-2.2,0.8-3.1,1.5c-0.9,0.6-1.6,1.4-2.2,2.4c-0.5,0.9-0.9,2-0.9,3.1c-0.1,1.2-0.1,2.3,0,3.5
	c0.1,1.1,0.4,2.1,1,3c0.5,0.9,1.3,1.8,2.1,2.4c0.9,0.7,2,1.2,3.1,1.5c1.2,0.4,2.5,0.5,3.8,0.5s2.6-0.2,3.8-0.5
	c1.1-0.3,2.2-0.8,3.1-1.5c0.9-0.6,1.6-1.4,2.2-2.3s0.9-2,0.9-3.1c0-0.6,0.1-1.1,0.1-1.7S112.2,24.7,112.2,24.1z M99.1,26.5
	c-1.3,0-2.3-1-2.3-2.3s1-2.3,2.3-2.3s2.3,1,2.3,2.3l0,0C101.5,25.5,100.4,26.5,99.1,26.5L99.1,26.5z"/>
</svg>
