<svg xmlns="http://www.w3.org/2000/svg" viewBox="0 0 408.73 367.83"><g id="레이어_2" data-name="레이어 2"><g id="레이어_1-2" data-name="레이어 1"><path d="M0,321.29c2.1-7.71,4.72-15.16,10.34-21.16,9.37-10,20.67-15.21,34.56-13.47,2.58.32,3.76-.47,5-2.61q33.72-59.27,67.64-118.41c1.46-2.53.79-3.95-.64-5.91-10.23-14-10.32-33.5-.31-47,11.22-15.11,29.62-21,46.68-15.06A40.44,40.44,0,0,1,186.87,153c-1.1,2.38-.65,3.76.95,5.55q26.87,30.06,53.56,60.27c1.53,1.74,2.85,2,5.15,1.51a67.88,67.88,0,0,1,13.72-1.91c2.83-.06,4.18-.81,5.4-3.27q28.77-57.81,57.7-115.53c4.57-9.15,9-18.36,13.77-27.43,1.18-2.25.95-3.64-.6-5.58-14.48-18.2-12-42.85,5.73-57.3,20-16.36,49.21-10.37,61.7,12.68,14.19,26.21-5,59.46-34.67,59.58-5.28,0-7.41,1.63-9.62,6.09q-34.49,69.65-69.49,139.05c-1.44,2.86-1.42,4.73.66,7.31,11.32,14.08,11.81,34.59,1.41,48.59-11.4,15.35-30.24,21.22-47.45,14.79a40.56,40.56,0,0,1-22.94-55c1.05-2.29.84-3.7-.84-5.57q-26.89-30-53.59-60.24c-1.49-1.68-2.7-2-5.06-1.58a125.84,125.84,0,0,1-16.91,1.73c-2.09.1-3.29.43-4.39,2.36q-33.91,59.61-68,119.11c-1.18,2.05-.72,3.25.47,4.91,13.66,19.28,10,42.8-8.94,57.19-18.36,14-47.54,8-58.54-12.32C3.42,343.09,2,337.64,0,332.47ZM367.93,27.36A13.37,13.37,0,0,0,354.4,40.68a13.63,13.63,0,0,0,13.52,13.84,13.88,13.88,0,0,0,13.64-13.43A13.62,13.62,0,0,0,367.93,27.36ZM40.81,340.56A13.36,13.36,0,0,0,54.4,327.3a13.63,13.63,0,0,0-13.46-13.9,13.89,13.89,0,0,0-13.7,13.77A13.62,13.62,0,0,0,40.81,340.56ZM150.07,149.78a13.64,13.64,0,0,0,13.48-13.49,13.94,13.94,0,0,0-13.82-13.68,13.62,13.62,0,0,0-13.34,14A13.35,13.35,0,0,0,150.07,149.78ZM272.42,258.91a13.38,13.38,0,0,0-13.32-13.53,13.68,13.68,0,0,0-13.84,13.54,13.83,13.83,0,0,0,13.84,13.61A13.57,13.57,0,0,0,272.42,258.91Z"/></g></g></svg>