<svg xmlns="http://www.w3.org/2000/svg" viewBox="0 0 302 275.16"><g id="레이어_2" data-name="레이어 2"><g id="레이어_1-2" data-name="레이어 1"><path d="M0,239c.62-2.17,1.22-4.35,1.87-6.52A33,33,0,0,1,37.7,208.59c.82.09,1.64.13,2.88.23L74.86,133.6C64,124,59.65,112.4,63.05,98.44c4.12-17,21.19-27.54,38.78-24.3,16.86,3.11,29.08,19.81,26.45,36.76-.66,4.2.51,6.15,4.09,8.08,14.95,8,29.75,16.34,44.55,24.65,2.33,1.31,3.81,1.44,6-.57a31,31,0,0,1,26.25-8.19c3.42.49,5-.47,6.37-3.59q15.09-33.7,30.56-67.21c1.16-2.52,1.44-4.16-.92-6.42-9.79-9.4-12.71-21-8.81-33.85,3.85-12.64,12.77-20.33,25.85-23A8.53,8.53,0,0,0,264,0h9c1.67.59,3.32,1.23,5,1.76,11.05,3.5,18.29,10.86,22,21.75.74,2.14,1.32,4.33,2,6.49v7c-2.17,5.32-3.53,11.18-6.67,15.84-7.06,10.5-17.58,14.73-30.17,14.2-1.58-.07-4.12.88-4.68,2.07-11.26,24.28-22.29,48.66-33.45,73.17,9.85,9.49,13.72,20.85,10.37,34.11a33.3,33.3,0,0,1-65.11-13.6c.57-3.59-.46-4.94-3.28-6.47q-22.57-12.28-45-24.9c-2.62-1.48-4.33-1.78-6.86.58-6.78,6.34-15.15,8.9-24.36,8.07-3.14-.28-4.69.55-6,3.5Q71.6,177.47,56,211.2c-1.35,2.91-.89,4.62,1.32,6.84a33.31,33.31,0,0,1,6.25,39.12,33.66,33.66,0,0,1-34.67,17.62c-14.8-2.32-25.53-13.27-28-28.55A11.23,11.23,0,0,0,0,244ZM286.49,33.63c0-10-8.52-18.58-18.41-18.45A18.76,18.76,0,0,0,249.89,33.4a18.3,18.3,0,1,0,36.6.23ZM95.2,125.16a18.51,18.51,0,0,0,18.59-18.24c0-9.79-8.71-18.4-18.64-18.35A18.5,18.5,0,0,0,77,106.71,18.14,18.14,0,0,0,95.2,125.16Zm128.28,42.68a18.31,18.31,0,1,0-18.42,18.3A18.37,18.37,0,0,0,223.48,167.84ZM52.16,241.71c0-10.1-8.46-18.6-18.38-18.47A18.77,18.77,0,0,0,15.54,242,18.46,18.46,0,0,0,33.76,260,18.23,18.23,0,0,0,52.16,241.71Z"/></g></g></svg>