<svg width="176" height="56" viewBox="0 0 176 56" fill="none" xmlns="http://www.w3.org/2000/svg">
<path d="M100.48 35.6L102.98 33.1C103.088 32.9817 103.219 32.8873 103.365 32.8226C103.512 32.758 103.67 32.7246 103.83 32.7246C103.99 32.7246 104.148 32.758 104.295 32.8226C104.441 32.8873 104.572 32.9817 104.68 33.1L107.18 35.6C107.298 35.7078 107.393 35.839 107.457 35.9854C107.522 36.1318 107.555 36.29 107.555 36.45C107.555 36.61 107.522 36.7683 107.457 36.9146C107.393 37.061 107.298 37.1922 107.18 37.3L104.68 39.8C104.572 39.9183 104.441 40.0127 104.295 40.0774C104.148 40.142 103.99 40.1754 103.83 40.1754C103.67 40.1754 103.512 40.142 103.365 40.0774C103.219 40.0127 103.088 39.9183 102.98 39.8L100.48 37.3C100.285 37.0596 100.179 36.7595 100.179 36.45C100.179 36.1405 100.285 35.8404 100.48 35.6Z" fill="#FBBB3C"/>
<path d="M31.8801 20.4C31.8977 19.9934 31.9648 19.5904 32.0801 19.2C32.2581 18.8896 32.496 18.6177 32.7801 18.4C33.0807 18.1747 33.4194 18.0053 33.7801 17.9C34.1363 17.7852 34.5062 17.718 34.8801 17.7C35.6418 17.6707 36.3883 17.9195 36.9801 18.4C37.2711 18.644 37.5032 18.9506 37.6591 19.297C37.8149 19.6433 37.8905 20.0204 37.8801 20.4V28.2C38.5243 27.907 39.1937 27.6727 39.8801 27.5C40.635 27.3349 41.408 27.2677 42.1801 27.3C43.4294 27.3119 44.6724 27.4799 45.8801 27.8C46.9701 28.095 47.9901 28.605 48.8801 29.3C49.7022 29.9566 50.3825 30.773 50.8801 31.7C51.4021 32.722 51.6761 33.8525 51.6801 35V42.1C51.7092 42.9543 51.4638 43.7954 50.9801 44.5C50.6764 44.8578 50.2899 45.1359 49.8541 45.3102C49.4184 45.4845 48.9467 45.5496 48.4801 45.5C47.6765 45.4946 46.8994 45.212 46.2801 44.7C46.0208 44.4363 45.8166 44.1237 45.6793 43.7803C45.5419 43.437 45.4742 43.0698 45.4801 42.7V34.8C45.4769 34.3594 45.3767 33.9249 45.1866 33.5274C44.9964 33.1298 44.7211 32.7791 44.3801 32.5C43.6172 31.8946 42.6496 31.6079 41.6801 31.7C40.7158 31.6561 39.7648 31.9379 38.9801 32.5C38.6201 32.7454 38.3235 33.0729 38.1149 33.4554C37.9063 33.8379 37.7915 34.2645 37.7801 34.7C37.7842 34.84 37.7496 34.9784 37.6801 35.1C37.5801 35.3 37.6801 35.3 37.6801 35.5V42.5C37.7433 43.3273 37.4934 44.1482 36.9801 44.8C36.6406 45.0978 36.2434 45.3225 35.8133 45.4601C35.3832 45.5978 34.9294 45.6454 34.4801 45.6C33.7183 45.6293 32.9719 45.3805 32.3801 44.9C31.8753 44.3956 31.5882 43.7136 31.5801 43L31.8801 20.4Z" fill="#F9F9FB"/>
<path d="M73.7802 41.7C74.5687 41.7718 75.3622 41.6338 76.0802 41.3C76.388 41.0879 76.6028 40.7657 76.6802 40.4C76.6768 40.2309 76.6396 40.0642 76.571 39.9096C76.5023 39.7551 76.4034 39.6158 76.2802 39.5C76.0112 39.2083 75.6641 39 75.2802 38.9C74.8964 38.7221 74.4939 38.5879 74.0802 38.5L73.0802 38.3L70.5802 37.5C69.7764 37.3051 69.0027 37.0023 68.2802 36.6C67.6551 36.2079 67.1117 35.6985 66.6802 35.1C66.2387 34.4175 66.0284 33.6111 66.0802 32.8C66.0916 32.1038 66.2627 31.4196 66.5802 30.8C66.9042 30.0959 67.3909 29.479 68.0002 29C68.7912 28.4295 69.6692 27.9905 70.6002 27.7C71.9004 27.3312 73.2492 27.1626 74.6002 27.2C75.7069 27.2006 76.8114 27.301 77.9002 27.5C78.8036 27.6278 79.6811 27.8978 80.5002 28.3C80.7865 28.4101 81.0436 28.5847 81.2517 28.8101C81.4598 29.0355 81.6132 29.3058 81.7002 29.6C81.7808 30.1416 81.7116 30.6949 81.5002 31.2C81.1002 32.2 80.0002 32.5 78.2002 32C77.6575 31.8649 77.1232 31.6979 76.6002 31.5C75.9566 31.2857 75.2734 31.2174 74.6002 31.3C74.1644 31.2835 73.7282 31.317 73.3002 31.4C73.0002 31.5 72.8002 31.6 72.5002 31.7C72.2002 31.8 72.2002 32 72.1002 32.1C72.0193 32.2535 71.9846 32.4272 72.0002 32.6C72.0002 33.1 72.3002 33.4 73.0002 33.7C73.8378 34.0301 74.71 34.2649 75.6002 34.4C76.4129 34.587 77.2143 34.8208 78.0002 35.1C78.7762 35.3299 79.5166 35.6665 80.2002 36.1C80.8288 36.5287 81.3715 37.0714 81.8002 37.7C82.198 38.4371 82.4044 39.2623 82.4002 40.1C82.4109 40.8865 82.2129 41.6618 81.8264 42.3468C81.44 43.0319 80.8788 43.6023 80.2002 44C78.2463 45.0815 76.0311 45.6007 73.8002 45.5C72.3569 45.5157 70.9158 45.3816 69.5002 45.1C68.4837 44.8745 67.5284 44.4309 66.7002 43.8C66.4428 43.652 66.2204 43.4503 66.0478 43.2088C65.8753 42.9672 65.7567 42.6914 65.7002 42.4C65.6635 42.1359 65.68 41.8672 65.7487 41.6096C65.8174 41.352 65.9369 41.1107 66.1002 40.9C66.2572 40.6385 66.4762 40.4196 66.7378 40.2626C66.9993 40.1057 67.2955 40.0155 67.6002 40C68.2168 39.903 68.8483 40.0082 69.4002 40.3C70.0002 40.6 70.7002 40.9 71.4002 41.2C72.1224 41.6096 72.9542 41.7844 73.7802 41.7Z" fill="#F9F9FB"/>
<path d="M89.4802 21.2C89.4698 20.8204 89.5454 20.4433 89.7012 20.0969C89.8571 19.7506 90.0892 19.444 90.3802 19.2C91.0098 18.718 91.7878 18.4704 92.5802 18.5C93.3543 18.4974 94.1146 18.7047 94.7802 19.1C95.1012 19.3228 95.3611 19.6227 95.5358 19.9722C95.7105 20.3217 95.7946 20.7095 95.7802 21.1V27.1H99.0802C99.4905 27.0685 99.9023 27.1371 100.28 27.3C100.568 27.4299 100.837 27.5981 101.08 27.8C101.25 28.0102 101.385 28.2466 101.48 28.5C101.563 28.7925 101.596 29.0965 101.58 29.4C101.596 29.6378 101.562 29.8762 101.48 30.1C101.385 30.3534 101.25 30.5897 101.08 30.8C100.853 31.0231 100.58 31.1937 100.28 31.3C99.8695 31.4712 99.4233 31.5399 98.9802 31.5H95.5802V42.7C95.6173 43.1076 95.5441 43.5176 95.3681 43.8871C95.1922 44.2566 94.92 44.5719 94.5802 44.8C93.9291 45.2392 93.1654 45.4822 92.3802 45.5C91.6184 45.5293 90.872 45.2805 90.2802 44.8C89.9523 44.5659 89.6949 44.2463 89.5362 43.876C89.3775 43.5057 89.3235 43.0989 89.3802 42.7V31.6H85.8802C85.5149 31.6611 85.14 31.629 84.7904 31.5066C84.4407 31.3843 84.1277 31.1756 83.8802 30.9C83.567 30.4614 83.3928 29.9388 83.3802 29.4C83.3589 29.1293 83.3929 28.8571 83.4802 28.6C83.552 28.3365 83.6897 28.0956 83.8802 27.9C84.1072 27.6769 84.3802 27.5063 84.6802 27.4C85.0706 27.2847 85.4735 27.2176 85.8802 27.2H89.4802V21.2Z" fill="#F9F9FB"/>
<path d="M136 45.6C134.513 45.6041 133.032 45.4022 131.6 45C130.51 44.705 129.49 44.195 128.6 43.5C127.813 42.9001 127.193 42.1081 126.8 41.2C126.369 40.2921 126.13 39.3047 126.1 38.3C126 37.1021 126 35.8979 126.1 34.7C126.141 33.6647 126.379 32.6467 126.8 31.7C127.217 30.7777 127.831 29.9583 128.6 29.3C129.509 28.5536 130.565 28.0083 131.7 27.7C134.405 26.9348 137.261 26.866 140 27.5C140.922 27.719 141.801 28.0908 142.6 28.6C142.87 28.7467 143.097 28.9632 143.255 29.227C143.413 29.4909 143.498 29.7923 143.5 30.1C143.523 30.6606 143.384 31.216 143.1 31.7C142.938 31.9492 142.715 32.1532 142.453 32.2931C142.191 32.433 141.897 32.5042 141.6 32.5C140.988 32.498 140.38 32.3967 139.8 32.2C139.357 32.0604 138.922 31.8934 138.5 31.7C137.856 31.4857 137.173 31.4174 136.5 31.5C135.343 31.4063 134.186 31.6868 133.2 32.3C132.856 32.5983 132.58 32.9669 132.39 33.3809C132.2 33.7948 132.101 34.2446 132.1 34.7C132 35.7977 132 36.9023 132.1 38C132.101 38.4554 132.2 38.9052 132.39 39.3191C132.58 39.7331 132.856 40.1017 133.2 40.4C134.186 41.0133 135.343 41.2937 136.5 41.2C137.21 41.1985 137.917 41.0976 138.6 40.9C139.1 40.7 139.5 40.5 140 40.3C140.621 39.9995 141.318 39.8948 142 40C142.291 40.0566 142.567 40.1751 142.809 40.3477C143.05 40.5202 143.252 40.7427 143.4 41C143.695 41.4422 143.836 41.9696 143.8 42.5C143.789 42.7696 143.721 43.0337 143.6 43.275C143.479 43.5163 143.309 43.7293 143.1 43.9C142.328 44.4795 141.442 44.8885 140.5 45.1C139.028 45.4635 137.515 45.6317 136 45.6Z" fill="#F9F9FB"/>
<path d="M147.08 20.4C147.098 19.9934 147.165 19.5904 147.28 19.2C147.458 18.8896 147.696 18.6177 147.98 18.4C148.281 18.1747 148.619 18.0053 148.98 17.9C149.336 17.7852 149.706 17.718 150.08 17.7C150.842 17.6707 151.588 17.9195 152.18 18.4C152.481 18.6357 152.72 18.9408 152.877 19.2891C153.033 19.6375 153.103 20.0187 153.08 20.4V33.3L160.18 27.7C160.441 27.4781 160.743 27.3106 161.069 27.2076C161.396 27.1045 161.739 27.068 162.08 27.1C162.739 27.1371 163.369 27.3822 163.88 27.8C164.173 28.0142 164.403 28.3043 164.544 28.639C164.685 28.9737 164.732 29.3405 164.68 29.7C164.551 30.3925 164.2 31.0243 163.68 31.5L158.18 36L164.78 41.5C165.1 41.7639 165.342 42.1095 165.48 42.5C165.612 42.8161 165.646 43.1641 165.58 43.5C165.573 43.8233 165.468 44.137 165.28 44.4C165.173 44.6705 165.001 44.9108 164.78 45.1C164.525 45.336 164.226 45.5193 163.9 45.6394C163.574 45.7595 163.227 45.8141 162.88 45.8C162.187 45.7814 161.519 45.5354 160.98 45.1L153.18 38.5V42.7C153.214 43.097 153.149 43.4962 152.992 43.8624C152.835 44.2286 152.591 44.5506 152.28 44.8C151.66 45.2262 150.932 45.4689 150.18 45.5C149.805 45.4912 149.434 45.4237 149.08 45.3C148.719 45.1947 148.381 45.0253 148.08 44.8C147.796 44.5824 147.558 44.3104 147.38 44C147.169 43.6377 147.098 43.211 147.18 42.8L147.08 20.4Z" fill="#F9F9FB"/>
<path d="M54.7799 23.3C54.741 22.8636 54.8121 22.4244 54.9868 22.0226C55.1615 21.6208 55.4342 21.2692 55.7799 21C56.5118 20.484 57.3844 20.2048 58.2799 20.2C59.2113 20.1708 60.126 20.4523 60.8799 21C61.2256 21.2692 61.4983 21.6208 61.673 22.0226C61.8477 22.4244 61.9188 22.8636 61.8799 23.3C61.9188 23.7364 61.8477 24.1756 61.673 24.5774C61.4983 24.9792 61.2256 25.3308 60.8799 25.6C60.1177 26.1309 59.2087 26.4106 58.2799 26.4C57.3943 26.4298 56.5212 26.1853 55.7799 25.7C55.1664 25.0478 54.811 24.1948 54.7799 23.3ZM55.4799 30.3C55.4975 29.8933 55.5646 29.4904 55.6799 29.1C55.8579 28.7896 56.0959 28.5176 56.3799 28.3C56.6805 28.0747 57.0193 27.9053 57.3799 27.8C57.7362 27.6852 58.106 27.6179 58.4799 27.6C58.8548 27.6088 59.2259 27.6763 59.5799 27.8C59.9405 27.9053 60.2793 28.0747 60.5799 28.3C60.8639 28.5176 61.1019 28.7896 61.2799 29.1C61.4905 29.4623 61.5616 29.889 61.4799 30.3V42.9C61.4704 43.3075 61.4031 43.7115 61.2799 44.1C61.1019 44.4104 60.8639 44.6824 60.5799 44.9C60.2793 45.1253 59.9405 45.2947 59.5799 45.4C59.2216 45.5063 58.8527 45.5734 58.4799 45.6C58.105 45.5912 57.7339 45.5237 57.3799 45.4C57.0193 45.2947 56.6805 45.1253 56.3799 44.9C56.0959 44.6824 55.8579 44.4104 55.6799 44.1C55.4693 43.7377 55.3982 43.311 55.4799 42.9V30.3Z" fill="#F9F9FB"/>
<path d="M20.68 45.6C19.1926 45.6041 17.7119 45.4022 16.28 45C15.1667 44.6856 14.1174 44.1778 13.18 43.5C12.393 42.9001 11.7732 42.1081 11.38 41.2C10.9949 40.2764 10.7586 39.2976 10.68 38.3C10.58 37.1021 10.58 35.8979 10.68 34.7C10.7214 33.6647 10.959 32.6467 11.38 31.7C11.7967 30.7777 12.4112 29.9583 13.18 29.3C14.0886 28.5536 15.1452 28.0083 16.28 27.7C17.7119 27.2979 19.1926 27.0959 20.68 27.1C21.9981 27.0626 23.3139 27.2313 24.58 27.6C25.502 27.819 26.3808 28.1908 27.18 28.7C27.4499 28.8573 27.6804 29.0742 27.8537 29.3342C28.027 29.5942 28.1386 29.8903 28.18 30.2C28.2157 30.7767 28.0377 31.3463 27.68 31.8C27.5179 32.0492 27.2953 32.2532 27.033 32.3931C26.7707 32.533 26.4772 32.6042 26.18 32.6C25.5677 32.598 24.9598 32.4967 24.38 32.3C23.9367 32.1604 23.5025 31.9934 23.08 31.8C22.4364 31.5858 21.7532 31.5174 21.08 31.6C19.9227 31.5063 18.7659 31.7868 17.78 32.4C17.4119 32.6999 17.1202 33.083 16.929 33.5176C16.7377 33.9522 16.6524 34.426 16.68 34.9C16.58 35.9977 16.58 37.1023 16.68 38.2C16.6814 38.6554 16.7803 39.1052 16.97 39.5192C17.1598 39.9331 17.4359 40.3017 17.78 40.6C18.7659 41.2133 19.9227 41.4937 21.08 41.4C21.7905 41.3986 22.4974 41.2976 23.18 41.1C23.68 40.9 24.08 40.7 24.58 40.5C25.2008 40.1995 25.8983 40.0948 26.58 40.2C26.8714 40.2566 27.1472 40.3751 27.3888 40.5477C27.6303 40.7202 27.832 40.9427 27.98 41.2C28.2751 41.6422 28.4157 42.1696 28.38 42.7C28.3688 42.9696 28.3006 43.2337 28.18 43.475C28.0593 43.7163 27.8889 43.9293 27.68 44.1C26.8851 44.6401 26.0067 45.0455 25.08 45.3C23.6218 45.4994 22.1517 45.5997 20.68 45.6Z" fill="#F9F9FB"/>
<path d="M112.58 10.6C113.266 10.6128 113.919 10.8908 114.404 11.3757C114.889 11.8605 115.167 12.5144 115.18 13.2V21.3C115.167 21.9855 114.889 22.6394 114.404 23.1243C113.919 23.6091 113.266 23.8872 112.58 23.9C111.894 23.8872 111.241 23.6091 110.756 23.1243C110.271 22.6394 109.993 21.9855 109.98 21.3V13.2C109.993 12.5144 110.271 11.8605 110.756 11.3757C111.241 10.8908 111.894 10.6128 112.58 10.6Z" fill="#CD2604"/>
<path d="M119.18 15.2C119.866 15.2128 120.52 15.4909 121.004 15.9757C121.489 16.4606 121.767 17.1145 121.78 17.8V23C121.767 23.6856 121.489 24.3395 121.004 24.8243C120.52 25.3092 119.866 25.5872 119.18 25.6C118.495 25.5872 117.841 25.3092 117.356 24.8243C116.871 24.3395 116.593 23.6856 116.58 23V17.8C116.593 17.1145 116.871 16.4606 117.356 15.9757C117.841 15.4909 118.495 15.2128 119.18 15.2Z" fill="#022569"/>
<path d="M106 18.8C106.686 18.8128 107.34 19.0909 107.825 19.5757C108.309 20.0606 108.587 20.7145 108.6 21.4V24.2C108.587 24.8856 108.309 25.5395 107.825 26.0243C107.34 26.5092 106.686 26.7872 106 26.8C105.315 26.7872 104.661 26.5092 104.176 26.0243C103.691 25.5395 103.413 24.8856 103.4 24.2V21.4C103.389 21.0556 103.449 20.7125 103.575 20.392C103.702 20.0716 103.893 19.7805 104.137 19.5368C104.381 19.2931 104.672 19.102 104.992 18.9753C105.313 18.8485 105.656 18.7889 106 18.8Z" fill="#CD2604"/>
<path d="M122.78 34.7C122.692 33.603 122.35 32.5416 121.78 31.6C121.179 30.717 120.436 29.9398 119.58 29.3C118.654 28.6034 117.601 28.0939 116.48 27.8C115.283 27.4315 114.033 27.2626 112.78 27.3C111.498 27.3122 110.222 27.4801 108.98 27.8C107.859 28.0939 106.806 28.6034 105.88 29.3C104.975 29.9237 104.223 30.7442 103.68 31.7C103.127 32.6426 102.818 33.708 102.78 34.8C102.68 35.9645 102.68 37.1355 102.78 38.3C102.853 39.3688 103.197 40.4013 103.78 41.3C104.314 42.2314 105.028 43.0473 105.88 43.7C106.806 44.3966 107.859 44.9061 108.98 45.2C110.212 45.5692 111.495 45.738 112.78 45.7C114.062 45.6879 115.338 45.52 116.58 45.2C117.701 44.9061 118.754 44.3966 119.68 43.7C120.56 43.0884 121.308 42.3063 121.88 41.4C122.477 40.4772 122.79 39.3992 122.78 38.3C122.78 37.7 122.88 37.2 122.88 36.6C122.88 36 122.78 35.3 122.78 34.7ZM109.68 37.1C109.225 37.1 108.781 36.9651 108.402 36.7124C108.024 36.4597 107.729 36.1005 107.555 35.6802C107.381 35.2599 107.336 34.7975 107.424 34.3513C107.513 33.9052 107.732 33.4953 108.054 33.1737C108.375 32.852 108.785 32.633 109.231 32.5442C109.678 32.4555 110.14 32.501 110.56 32.6751C110.981 32.8492 111.34 33.144 111.592 33.5222C111.845 33.9004 111.98 34.3451 111.98 34.8C111.994 35.1058 111.945 35.4113 111.834 35.6968C111.724 35.9823 111.555 36.2416 111.338 36.458C111.122 36.6745 110.862 36.8434 110.577 36.954C110.291 37.0645 109.986 37.1143 109.68 37.1Z" fill="#F9F9FB"/>
</svg>
